<?xml version="1.0" encoding="iso-8859-1"?>
<!-- Uploaded to: SVG Repo, www.svgrepo.com, Generator: SVG Repo Mixer Tools -->
<svg height="800px" width="800px" version="1.1" id="Layer_1" xmlns="http://www.w3.org/2000/svg" xmlns:xlink="http://www.w3.org/1999/xlink" 
	 viewBox="0 0 512.001 512.001" xml:space="preserve">
<path style="fill:#FF9811;" d="M475.997,148.982c-111.34-41.026-255.471-89.932-309.82-89.932
	c-43.766,0-85.059,14.324-116.27,40.333C17.724,126.203,0,162.153,0,200.609c0,32.514,13.21,64.248,37.198,89.354
	c20.72,21.689,48.861,37.789,80.08,45.975l30.106,80.906c7.007,21.955,23.996,36.107,43.413,36.107
	c19.435,0,36.44-14.183,43.434-36.176l34.582-95.008c66.843-19.027,148.918-48.062,207.185-69.532
	c21.87-8.059,36.003-28.324,36.003-51.628S497.869,157.039,475.997,148.982z"/>
<path style="fill:#BF720D;" d="M475.997,148.982c-66.227-24.403-144.054-51.593-207.689-69.621v243.791l0.503-1.384
	c66.843-19.027,148.918-48.062,207.185-69.532c21.87-8.059,36.003-28.324,36.003-51.628S497.869,157.039,475.997,148.982z"/>
<g>
	<circle style="fill:#50412E;" cx="86.166" cy="200.609" r="18.464"/>
	<circle style="fill:#50412E;" cx="196.951" cy="194.454" r="18.464"/>
	<circle style="fill:#50412E;" cx="258.498" cy="219.073" r="18.464"/>
	<circle style="fill:#50412E;" cx="307.736" cy="182.145" r="18.464"/>
	<circle style="fill:#50412E;" cx="369.283" cy="194.454" r="18.464"/>
	<circle style="fill:#50412E;" cx="135.404" cy="151.371" r="18.464"/>
	<circle style="fill:#50412E;" cx="135.404" cy="249.847" r="18.464"/>
</g>
</svg>